External Loads File
version=1
nRows=63
nColumns=13
Range=5.000000e-03-10 seconds
endheader
time 	forceRightX 	forceRightY 	forceRightZ 	pointRightX 	pointRightY 	pointRightZ 	forceLeftX 	forceLeftY 	forceLeftZ 	pointLeftX 	pointLeftY 	pointLeftZ 		
0.005000 68.451649 164.341060 -0.000000 0.171895 0.169241 -0.145515 34.556174 102.789257 -0.000000 0.314797 0.490067 -0.378324
0.010000 68.901963 164.872469 -0.000000 0.171811 0.169317 -0.145498 32.506197 100.590453 -0.000000 0.314906 0.490013 -0.378327
0.015000 69.164204 165.444642 -0.000000 0.171711 0.169370 -0.145496 30.537416 98.660160 -0.000000 0.314994 0.489958 -0.378321
0.020000 69.169238 166.048903 -0.000000 0.171607 0.169437 -0.145498 28.721290 97.147620 -0.000000 0.315128 0.489903 -0.378318
0.025000 69.292544 166.491788 -0.000000 0.171518 0.169522 -0.145523 27.272617 96.011411 -0.000000 0.315018 0.488975 -0.378299
0.030000 69.903138 166.581970 -0.000000 0.171432 0.169619 -0.145510 26.345883 95.162103 -0.000000 0.315529 0.489130 -0.378431
0.035000 69.958233 166.731495 -0.000000 0.171370 0.169719 -0.145506 25.313195 94.719892 -0.000000 0.315641 0.489791 -0.378434
0.040000 70.138530 166.645527 -0.000000 0.171302 0.169781 -0.145507 24.560112 94.510556 -0.000000 0.315746 0.490380 -0.378439
0.045000 72.969539 165.228302 -0.000000 0.171243 0.169836 -0.145521 25.526145 94.083898 -0.000000 0.315862 0.490319 -0.378467
0.050000 72.977159 164.855302 -0.000000 0.171173 0.169937 -0.145529 25.100762 94.193465 -0.000000 0.315795 0.490252 -0.378409
0.055000 72.922929 164.374322 -0.000000 0.171119 0.170020 -0.145537 24.828227 94.344549 -0.000000 0.315806 0.490194 -0.378329
0.060000 72.896544 163.786957 -0.000000 0.171056 0.170120 -0.145545 24.724345 94.464637 -0.000000 0.315899 0.490110 -0.378325
0.065000 72.664263 163.226626 -0.000000 0.170992 0.170194 -0.145532 24.610883 94.562855 -0.000000 0.316016 0.490044 -0.378345
0.070000 72.735568 162.488321 -0.000000 0.170943 0.170323 -0.145525 24.726893 94.550167 -0.000000 0.316123 0.489948 -0.378344
0.075000 72.487715 161.869556 -0.000000 0.170867 0.170428 -0.145531 24.664116 94.523381 -0.000000 0.316248 0.489901 -0.378366
0.080000 72.414030 161.164861 -0.000000 0.170802 0.170556 -0.145528 24.684203 94.424204 -0.000000 0.316394 0.489818 -0.378373
0.085000 72.134435 160.559233 -0.000000 0.170714 0.170629 -0.145530 24.533591 94.305905 -0.000000 0.316524 0.489756 -0.378373
0.090000 71.889041 159.961854 -0.000000 0.170613 0.170758 -0.145543 24.321098 94.115767 -0.000000 0.316682 0.489677 -0.378382
0.095000 71.799248 159.336118 -0.000000 0.170489 0.170857 -0.145536 24.117895 93.850294 -0.000000 0.316823 0.489585 -0.378370
0.100000 71.571747 158.834403 -0.000000 0.170362 0.170955 -0.145523 23.769196 93.581166 -0.000000 0.316997 0.489489 -0.378374
0.105000 71.228085 158.464909 -0.000000 0.170202 0.171042 -0.145519 23.305912 93.315760 -0.000000 0.317165 0.489423 -0.378367
0.110000 71.023717 158.113221 -0.000000 0.170045 0.171149 -0.145504 22.898949 93.019897 -0.000000 0.317338 0.489299 -0.378372
0.115000 70.773157 157.842665 -0.000000 0.169887 0.171254 -0.145514 22.446876 92.717070 -0.000000 0.317532 0.488807 -0.378362
0.120000 70.710462 157.531143 -0.000000 0.169701 0.171391 -0.145505 22.085324 92.378563 -0.000000 0.317641 0.488315 -0.378368
0.125000 74.620090 155.438842 -0.000000 0.169535 0.171523 -0.145521 24.043727 91.493040 -0.000000 0.317843 0.488192 -0.378377
0.130000 74.496378 155.352825 -0.000000 0.169325 0.171647 -0.145538 23.622748 91.295831 -0.000000 0.318063 0.488048 -0.378377
0.135000 74.453335 155.426376 -0.000000 0.169120 0.171800 -0.145558 23.243421 91.207550 -0.000000 0.318290 0.487897 -0.378385
0.140000 74.367744 155.719166 -0.000000 0.168921 0.171983 -0.145549 22.866283 91.264705 -0.000000 0.318510 0.487760 -0.378404
0.145000 74.508716 156.039846 -0.000000 0.168721 0.172141 -0.145548 22.689770 91.427566 -0.000000 0.318740 0.487681 -0.378424
0.150000 74.733382 156.384594 -0.000000 0.168490 0.172297 -0.145563 22.640809 91.702016 -0.000000 0.318985 0.487522 -0.378433
0.155000 74.675629 156.883924 -0.000000 0.168265 0.172458 -0.145559 22.503767 92.143562 -0.000000 0.319210 0.487383 -0.378444
0.160000 74.875602 157.257328 -0.000000 0.168026 0.172598 -0.145551 22.603327 92.697177 -0.000000 0.319474 0.487230 -0.378461
0.165000 75.197202 157.544571 -0.000000 0.167805 0.172739 -0.145533 22.873522 93.398122 -0.000000 0.319732 0.487007 -0.378464
0.170000 74.998483 158.021726 -0.000000 0.167572 0.172907 -0.145505 22.942078 94.326460 -0.000000 0.319968 0.486867 -0.378481
0.175000 75.215246 158.225376 -0.000000 0.167340 0.173087 -0.145532 23.334070 95.273893 -0.000000 0.320196 0.486707 -0.378487
0.180000 75.115815 158.504074 -0.000000 0.167103 0.173252 -0.145525 23.519404 96.215855 -0.000000 0.320419 0.486533 -0.378490
0.185000 76.843882 157.847095 -0.000000 0.166860 0.173417 -0.145538 24.710189 96.708941 -0.000000 0.320661 0.486361 -0.378498
0.190000 76.784284 158.012087 -0.000000 0.166633 0.173572 -0.145528 24.660840 97.259473 -0.000000 0.320889 0.486209 -0.378519
0.195000 76.770577 158.126173 -0.000000 0.166410 0.173779 -0.145517 24.492760 97.597484 -0.000000 0.321118 0.486065 -0.378534
0.200000 76.442010 158.356961 -0.000000 0.166199 0.173961 -0.145515 24.013371 97.813065 -0.000000 0.321367 0.485878 -0.378511
0.205000 76.406659 158.404436 -0.000000 0.165989 0.174102 -0.145519 23.635992 97.855697 -0.000000 0.321615 0.485669 -0.378524
0.210000 76.058473 158.564126 -0.000000 0.165805 0.174271 -0.145535 23.002269 97.832230 -0.000000 0.321847 0.485493 -0.378508
0.215000 75.815399 158.631764 -0.000000 0.165615 0.174447 -0.145517 22.362582 97.657441 -0.000000 0.322323 0.485359 -0.378314
0.220000 75.721773 158.573147 -0.000000 0.165411 0.174612 -0.145521 21.736953 97.297409 -0.000000 0.322533 0.485235 -0.378320
0.225000 78.368013 157.117603 -0.000000 0.165192 0.174766 -0.145525 22.699863 96.374841 -0.000000 0.322748 0.485138 -0.378324
0.230000 78.079143 157.065576 -0.000000 0.164970 0.174933 -0.145532 21.749070 95.690617 -0.000000 0.322944 0.485022 -0.378322
0.235000 77.807157 157.041982 -0.000000 0.164767 0.175078 -0.145528 20.712276 94.881059 -0.000000 0.323136 0.484919 -0.378342
0.240000 77.545038 157.126264 -0.000000 0.164583 0.175228 -0.145525 19.649865 94.063492 -0.000000 0.323339 0.484763 -0.378342
0.245000 77.440114 157.284471 -0.000000 0.164388 0.175371 -0.145521 18.734125 93.336931 -0.000000 0.323544 0.484635 -0.378347
0.250000 77.591914 157.439738 -0.000000 0.164214 0.175518 -0.145512 18.115281 92.789607 -0.000000 0.323738 0.484456 -0.378337
0.255000 77.512992 157.740776 -0.000000 0.164055 0.175637 -0.145509 17.611085 92.555250 -0.000000 0.323949 0.484314 -0.378338
0.260000 77.256278 158.059764 -0.000000 0.163883 0.175783 -0.145487 17.325678 92.650352 -0.000000 0.324152 0.484609 -0.378319
0.265000 77.218392 158.150162 -0.000000 0.163721 0.175910 -0.145507 17.497096 93.008270 -0.000000 0.324323 0.484505 -0.378304
0.270000 77.111433 158.161721 -0.000000 0.163579 0.176007 -0.145501 17.919542 93.627997 -0.000000 0.324495 0.484398 -0.378322
0.275000 76.792249 158.215300 -0.000000 0.163436 0.176120 -0.145490 18.435819 94.476050 -0.000000 0.324652 0.484301 -0.378333
0.280000 76.483905 158.259520 -0.000000 0.163312 0.176237 -0.145487 19.079691 95.448929 -0.000000 0.324794 0.484211 -0.378338
0.285000 80.191383 156.321948 -0.000000 0.163195 0.176356 -0.145484 22.211113 95.928977 -0.000000 0.324931 0.484082 -0.378340
0.290000 80.130311 156.244650 -0.000000 0.163086 0.176436 -0.145487 23.011225 96.839859 -0.000000 0.325054 0.484015 -0.378355
0.295000 79.849039 156.220709 -0.000000 0.162995 0.176526 -0.145487 23.518412 97.608093 -0.000000 0.325171 0.483927 -0.378355
0.300000 79.931736 155.931576 -0.000000 0.162904 0.176600 -0.145488 24.007802 98.030924 -0.000000 0.325268 0.483858 -0.378360
0.305000 79.583383 155.778531 -0.000000 0.162831 0.176672 -0.145498 23.941395 98.157540 -0.000000 0.325368 0.483806 -0.378365
0.310000 79.381384 155.453231 -0.000000 0.162782 0.176722 -0.145504 23.679077 97.868892 -0.000000 0.325448 0.483774 -0.378384
0.315000 79.244952 154.978799 -0.000000 0.162730 0.176785 -0.145503 23.203389 97.198641 -0.000000 0.325523 0.483729 -0.378381
